<?xml version="1.0" encoding="UTF-8"?>
<svg width="130px" height="115px" viewBox="0 0 130 115" version="1.1" xmlns="http://www.w3.org/2000/svg" xmlns:xlink="http://www.w3.org/1999/xlink">
    <!-- Generator: Sketch 55.2 (78181) - https://sketchapp.com -->
    <title>imiracli-logo</title>
    <desc>Created with Sketch.</desc>
    <g id="imiracli-logo" stroke="none" stroke-width="1" fill="none" fill-rule="evenodd">
        <g id="Group" transform="translate(2.000000, 3.000000)">
            <path d="M106.063291,79.522286 C106.507465,74.2064405 105.01226,68.871687 107.513943,63.4842612 C112.053561,53.7088319 108.316561,41.9744 99.000388,35.5443338 C97.5065331,34.5131733 96.6654381,33.4961937 96.4858785,31.5702801 C95.3221162,19.1018132 85.6204973,9.9064539 73.0594254,9.18592454 C60.975604,8.49308187 50.1243986,16.8808 47.5565612,28.8934494 C47.3979277,29.6349126 47.198117,30.3675971 46.9780553,31.2637006 C45.3991458,30.959147 43.9991209,30.570858 42.5741197,30.4344503 C35.8278088,29.7882023 29.4480426,33.8392386 27.4708618,40.3658706 C26.6560932,43.0548564 25.2074657,44.4297372 22.6065516,45.1327092 C13.7055255,47.5387505 8.43619362,55.1998617 9.64248314,63.7996194 C10.8082705,72.1123809 18.0183312,78.1399771 26.9855108,78.2196607 C32.9271787,78.272333 38.8695215,78.2291147 44.8773429,78.2291147 C45.6057069,81.3847227 45.1001048,84.2634638 45.2742641,87.6452923 C36.3691878,87.1665151 27.6942988,88.7095419 19.2266458,86.5040602 C8.81556391,83.7921146 0.881189491,74.1794291 0.090047172,63.988024 C-0.799650419,52.5345108 4.94693197,42.5706769 15.4039163,37.8186946 C17.5586316,36.8388557 18.9782325,35.6030837 20.1406447,33.4793115 C23.8756195,26.6535282 29.7356079,22.517406 37.4782721,21.4774667 C39.8442737,21.1594074 40.5490114,19.7264521 41.5190383,18.0362131 C48.9802124,5.02751794 60.3862975,-1.16147141 75.183764,0.179645108 C89.4337763,1.4714658 99.4816887,9.25480363 104.235968,22.8773331 C105.650169,26.927694 107.528794,30.1325978 110.457776,33.2308066 C122.456543,45.9261693 121.266454,67.214537 108.20248,78.722073 C107.700928,79.1637095 107.249329,79.6944837 106.063291,79.522286" id="Fill-3" fill="#85C6D7"></path>
            <path d="M88.2205479,78.9065284 C88.2293102,72.0028474 82.81839,66.6823566 75.7615188,66.656615 C68.7026231,66.6303935 63.1837274,71.938737 63.1432366,78.793829 C63.0986967,86.0767738 68.62839,91.518737 75.9916415,91.4418045 C82.9533593,91.3682462 88.2110894,85.9782462 88.2205479,78.9065284 M49.985752,74.6414977 C52.044709,74.2770806 54.4363655,75.2259149 55.0794943,72.2673873 C55.6632366,69.5821726 59.1852612,66.812602 54.3344636,64.6301481 C55.6105986,62.0866511 57.5946477,60.6202094 59.3890648,58.9857309 C60.1948317,58.2528474 61.1072243,58.1502708 61.7267336,59.0322953 C63.6682673,61.7978168 65.6172243,59.7793505 67.6444636,59.2347493 C69.908574,58.6267125 71.6260587,57.8175714 71.1874084,54.9744425 C71.0159974,53.8622953 71.8649544,53.3777554 72.8907213,53.366283 C75.2277151,53.339964 77.564709,53.3581849 80.3417029,53.3581849 C78.7956293,59.1382462 83.6761201,58.7778781 86.4733593,60.4211296 C87.2224391,60.8611296 88.0943409,60.736283 88.6348931,60.06751 C90.6304145,57.5962217 92.1090035,58.7515591 93.7886967,60.5277554 C94.8488808,61.6486757 96.2917029,62.4072033 97.4213961,63.2257922 C93.2677151,69.0119272 95.1903532,73.6798413 101.391519,74.8986143 C102.145323,77.1411296 101.638513,79.5051174 101.733666,81.8265898 C101.76201,82.5115591 101.558206,83.49751 100.81655,83.3733382 C96.4955066,82.6512523 96.4732366,86.3271419 95.1802305,88.7059763 C94.8644023,89.2856695 94.5728685,89.8788597 94.2421937,90.5213137 C95.2119483,91.6928474 96.1229912,92.7921726 97.6353225,94.6189824 C96.1405372,95.7837677 94.5816415,96.7467738 93.3480219,98.0242585 C91.8593102,99.5656082 90.7815802,100.094688 88.9372243,98.3360376 C87.1556293,96.6354241 80.9517642,99.0905162 80.3653225,101.51524 C80.1567949,102.378369 80.0798624,103.273216 79.923298,104.271989 C77.0943409,104.700516 74.3416415,104.677571 71.6267336,104.321927 C70.7791262,100.405792 68.483298,98.1646266 64.7102305,97.4823566 C64.3059974,97.4094732 63.652071,97.366283 63.475936,97.5923566 C60.2096783,101.777755 58.50839,98.0876941 56.4744023,96.2176941 C55.7401691,95.5421726 55.0997397,94.7654241 54.1077151,93.7045652 C59.159617,91.0011296 55.5059974,87.8678168 54.7063041,84.8310069 C54.3925004,83.6392278 53.3086967,83.4333996 52.2444636,83.5697186 C49.8001691,83.8828474 49.3851385,82.516283 49.5747704,80.5281849 C49.7542796,78.6534609 49.2717642,76.7301481 49.985752,74.6414977" id="Fill-5" fill="#C8E770" transform="translate(75.673808, 78.971576) rotate(-5.000000) translate(-75.673808, -78.971576) "></path>
            <path d="M88.404908,79.8251827 C88.3954903,86.9492066 83.1604565,92.3790738 76.2287906,92.4531762 C68.8973242,92.5306778 63.3915012,87.048463 63.4358488,79.7116497 C63.4761648,72.8058539 68.9712369,67.4582471 75.9996612,67.4846626 C83.0260698,67.5105946 88.4136325,72.8704385 88.404908,79.8251827" id="Fill-7" fill="#F7F8FA"></path>
            <path d="M6.33395656,39.7345927 L6.33395656,54.6625767 L1.87139626,54.6625767 L1.87139626,39.7345927 L6.33395656,39.7345927 Z M6.85218937,35.6463116 C6.85218937,36.0013989 6.78021331,36.3348879 6.63625904,36.6467889 C6.49230476,36.9586898 6.2955702,37.2321988 6.04604945,37.4673242 C5.7965287,37.7024495 5.50622526,37.8895872 5.17513042,38.028743 C4.84403558,38.1678988 4.49135289,38.2374757 4.11707177,38.2374757 C3.7523876,38.2374757 3.41170091,38.1678988 3.0950015,38.028743 C2.77830209,37.8895872 2.49759546,37.7024495 2.25287319,37.4673242 C2.00815091,37.2321988 1.81621476,36.9586898 1.67705895,36.6467889 C1.53790315,36.3348879 1.46832629,36.0013989 1.46832629,35.6463116 C1.46832629,35.2816275 1.53790315,34.9409408 1.67705895,34.6242414 C1.81621476,34.307542 2.00815091,34.0292345 2.25287319,33.7893107 C2.49759546,33.5493869 2.77830209,33.3622492 3.0950015,33.2278919 C3.41170091,33.0935345 3.7523876,33.0263569 4.11707177,33.0263569 C4.49135289,33.0263569 4.84403558,33.0935345 5.17513042,33.2278919 C5.50622526,33.3622492 5.7965287,33.5493869 6.04604945,33.7893107 C6.2955702,34.0292345 6.49230476,34.307542 6.63625904,34.6242414 C6.78021331,34.9409408 6.85218937,35.2816275 6.85218937,35.6463116 Z M20.6573356,45.0752697 C20.8492747,45.4399539 21.0340132,45.8190278 21.2115568,46.2125028 C21.3891004,46.6059778 21.5594438,47.0090438 21.7225919,47.4217127 C21.8857401,46.9994468 22.0584827,46.5891833 22.2408248,46.1909098 C22.4231668,45.7926363 22.6103046,45.4063648 22.8022436,45.0320836 L28.1861067,34.4371017 C28.2820762,34.2547597 28.3804435,34.1132067 28.4812115,34.0124388 C28.5819795,33.9116708 28.694742,33.8372955 28.8195024,33.7893107 C28.9442627,33.741326 29.0858157,33.7125356 29.2441654,33.7029386 C29.4025151,33.6933416 29.5872536,33.6885432 29.7983866,33.6885432 L33.5123884,33.6885432 L33.5123884,54.6625767 L29.2225723,54.6625767 L29.2225723,42.5992685 C29.2225723,42.0138544 29.2513628,41.3804651 29.3089445,40.6990815 L23.7523371,51.481203 C23.579592,51.8170964 23.3468694,52.0714118 23.0541624,52.2441569 C22.7614553,52.416902 22.4279663,52.5032733 22.0536851,52.5032733 L21.3914988,52.5032733 C21.0172176,52.5032733 20.6837286,52.416902 20.3910215,52.2441569 C20.0983145,52.0714118 19.8655919,51.8170964 19.6928468,51.481203 L14.1074487,40.6846862 C14.1458365,41.0205795 14.1746269,41.3540686 14.1938208,41.6851634 C14.2130148,42.0162582 14.2226116,42.3209569 14.2226116,42.5992685 L14.2226116,54.6625767 L9.93279552,54.6625767 L9.93279552,33.6885432 L13.6467973,33.6885432 C13.8579303,33.6885432 14.0426688,33.6933416 14.2010185,33.7029386 C14.3593682,33.7125356 14.5009211,33.741326 14.6256815,33.7893107 C14.7504419,33.8372955 14.8632044,33.9116708 14.9639724,34.0124388 C15.0647404,34.1132067 15.1631077,34.2547597 15.2590772,34.4371017 L20.6573356,45.0752697 Z M42.2935554,54.6625767 L37.3991344,54.6625767 L37.3991344,33.6885432 L42.2935554,33.6885432 L42.2935554,54.6625767 Z M51.0459318,46.9034799 L51.0459318,54.6625767 L46.1803015,54.6625767 L46.1803015,33.6885432 L53.0037002,33.6885432 C54.5200186,33.6885432 55.8131884,33.8444914 56.8832486,34.1563923 C57.9533087,34.4682932 58.8266182,34.9025488 59.5032033,35.459172 C60.1797884,36.0157952 60.6716248,36.6731766 60.9787273,37.4313358 C61.2858297,38.189495 61.4393787,39.0148204 61.4393787,39.907337 C61.4393787,40.5887205 61.348209,41.2317067 61.1658669,41.8363146 C60.9835248,42.4409226 60.712415,42.9999367 60.3525293,43.5133736 C59.9926436,44.0268105 59.5511905,44.4850581 59.0281566,44.8881301 C58.5051227,45.2912021 57.902923,45.6222919 57.2215394,45.8814096 C57.5478358,46.0445578 57.8525344,46.2460908 58.1356445,46.4860146 C58.4187546,46.7259384 58.6658724,47.018641 58.8770053,47.3641313 L63.3395656,54.6625767 L58.9345868,54.6625767 C58.1188459,54.6625767 57.5334406,54.3554788 57.1783533,53.7412739 L53.6946772,47.6520384 C53.541126,47.3833237 53.3611859,47.1913876 53.1548514,47.0762242 C52.9485169,46.9610607 52.6582135,46.9034799 52.2839324,46.9034799 L51.0459318,46.9034799 Z M51.0459318,43.549362 L53.0037002,43.549362 C53.6658898,43.549362 54.2297023,43.4653899 54.6951545,43.2974433 C55.1606066,43.1294966 55.5420797,42.896774 55.8395853,42.5992685 C56.1370908,42.301763 56.3530189,41.9538787 56.4873763,41.5556052 C56.6217336,41.1573317 56.6889113,40.7278745 56.6889113,40.2672209 C56.6889113,39.3459135 56.389011,38.6261529 55.7892015,38.1079175 C55.189392,37.5896821 54.2609009,37.3305683 53.0037002,37.3305683 L51.0459318,37.3305683 L51.0459318,43.549362 Z M84.8462273,54.6625767 L81.074644,54.6625767 C80.6523781,54.6625767 80.3044939,54.5642094 80.0309807,54.3674719 C79.7574676,54.1707344 79.5679306,53.9188182 79.4623642,53.6117157 L78.2243636,49.9552953 L70.2493364,49.9552953 L69.0113358,53.6117157 C68.9153663,53.8804304 68.7282286,54.1227498 68.449917,54.3386812 C68.1716054,54.5546126 67.8309187,54.6625767 67.4278467,54.6625767 L63.6274728,54.6625767 L71.7464534,33.6885432 L76.7272466,33.6885432 L84.8462273,54.6625767 Z M71.3721742,46.6443635 L77.1015258,46.6443635 L75.1725481,40.9006165 C75.0477878,40.5359323 74.9014364,40.1064752 74.7334898,39.6122322 C74.5655431,39.1179891 74.3999982,38.5829671 74.23685,38.00715 C74.0832988,38.5925641 73.9249514,39.1347837 73.7618033,39.6338252 C73.5986551,40.1328667 73.4451062,40.5647231 73.3011519,40.9294072 L71.3721742,46.6443635 Z M100.637933,49.2355275 C100.753096,49.2355275 100.868258,49.2571204 100.983421,49.3003066 C101.098585,49.3434929 101.208948,49.4178682 101.314514,49.5234347 L103.243492,51.5531798 C102.39896,52.6568293 101.340912,53.4893524 100.069316,54.0507741 C98.7977199,54.6121957 97.2934203,54.8929024 95.556372,54.8929024 C93.963278,54.8929024 92.5357528,54.6217926 91.2737536,54.0795648 C90.0117545,53.537337 88.9417104,52.788786 88.0635893,51.8338893 C87.1854682,50.8789926 86.5112924,49.7465692 86.0410418,48.4365853 C85.5707911,47.1266014 85.3356693,45.7038746 85.3356693,44.1683623 C85.3356693,42.6040591 85.60438,41.1669371 86.1418093,39.8569532 C86.6792386,38.5469693 87.4301888,37.4169452 88.3946825,36.4668469 C89.3591761,35.5167487 90.5131923,34.7777945 91.8567655,34.2499621 C93.2003388,33.7221298 94.6830456,33.4582176 96.3049305,33.4582176 C97.0918805,33.4582176 97.833234,33.5277944 98.529013,33.6669502 C99.224792,33.806106 99.8749757,33.9980422 100.479584,34.2427644 C101.084192,34.4874867 101.640807,34.7801894 102.149445,35.1208812 C102.658083,35.4615729 103.109133,35.8382477 103.502608,36.2509166 L101.861538,38.453406 C101.755971,38.5877634 101.631213,38.7101227 101.487259,38.8204876 C101.343304,38.9308525 101.141771,38.9860342 100.882654,38.9860342 C100.709909,38.9860342 100.546763,38.947647 100.393212,38.8708713 C100.23966,38.7940957 100.076515,38.7005269 99.9037694,38.5901619 C99.7310243,38.479797 99.5414874,38.3598369 99.3351529,38.230278 C99.1288184,38.1007192 98.8840998,37.9807591 98.6009897,37.8703941 C98.3178797,37.7600292 97.9867898,37.6664603 97.6077102,37.5896847 C97.2286306,37.5129091 96.7847782,37.4745218 96.2761398,37.4745218 C95.3932202,37.4745218 94.5870883,37.63047 93.85772,37.9423709 C93.1283517,38.2542718 92.5021599,38.7005234 91.9791261,39.281139 C91.4560922,39.8617546 91.0482279,40.5647208 90.7555208,41.3900586 C90.4628138,42.2153965 90.3164625,43.1414884 90.3164625,44.1683623 C90.3164625,45.2432209 90.4628138,46.1981033 90.7555208,47.0330381 C91.0482279,47.8679729 91.4464954,48.5709391 91.9503354,49.1419577 C92.4541753,49.7129764 93.0419798,50.1472319 93.7137664,50.4447374 C94.3855531,50.7422429 95.1053137,50.8909935 95.8730698,50.8909935 C96.3145296,50.8909935 96.7175955,50.8694006 97.0822797,50.8262144 C97.4469639,50.7830281 97.7852514,50.7086528 98.0971523,50.6030863 C98.4090532,50.4975199 98.7065543,50.3607654 98.9896644,50.1928187 C99.2727744,50.024872 99.5582795,49.8161415 99.846188,49.5666207 C99.9613514,49.4706512 100.08611,49.3914775 100.220467,49.3290974 C100.354825,49.2667172 100.493978,49.2355275 100.637933,49.2355275 Z M110.326007,50.7758306 L118.099499,50.7758306 L118.099499,54.6625767 L105.460377,54.6625767 L105.460377,33.6885432 L110.326007,33.6885432 L110.326007,50.7758306 Z M125.729038,54.6625767 L120.834617,54.6625767 L120.834617,33.6885432 L125.729038,33.6885432 L125.729038,54.6625767 Z" id="iMIRACLI" fill="#22627A" fill-rule="nonzero"></path>
            <g id="Group-22" transform="translate(24.294479, 76.257669)" fill="#95CB5B">
                <path d="M8.09815951,18.8957055 C8.09815951,21.1313937 6.2857616,22.9447853 4.04907975,22.9447853 C1.81339155,22.9447853 0,21.1313937 0,18.8957055 C0,16.6600173 1.81339155,14.8466258 4.04907975,14.8466258 C6.2857616,14.8466258 8.09815951,16.6600173 8.09815951,18.8957055" id="Fill-10"></path>
                <path d="M89.0797546,12.1472393 C89.0797546,14.3829275 87.2671343,16.196319 85.0311717,16.196319 C82.7942154,16.196319 80.9815951,14.3829275 80.9815951,12.1472393 C80.9815951,9.91155106 82.7942154,8.09815951 85.0311717,8.09815951 C87.2671343,8.09815951 89.0797546,9.91155106 89.0797546,12.1472393" id="Fill-12"></path>
                <path d="M26.3190184,29.6932515 C26.3190184,31.9289397 24.5063981,33.7423313 22.2694418,33.7423313 C20.0334792,33.7423313 18.2208589,31.9289397 18.2208589,29.6932515 C18.2208589,27.4575633 20.0334792,25.6441718 22.2694418,25.6441718 C24.5063981,25.6441718 26.3190184,27.4575633 26.3190184,29.6932515" id="Fill-14"></path>
                <path d="M39.1684356,14.9847669 C39.1684356,17.2204551 37.3558153,19.0338466 35.1198527,19.0338466 C32.8828964,19.0338466 31.0702761,17.2204551 31.0702761,14.9847669 C31.0702761,12.7490787 32.8828964,10.9356871 35.1198527,10.9356871 C37.3558153,10.9356871 39.1684356,12.7490787 39.1684356,14.9847669" id="Fill-16"></path>
                <path d="M55.8497669,4.1496319 C55.8497669,6.38532011 54.0371466,8.19871166 51.8001902,8.19871166 C49.5642277,8.19871166 47.7516074,6.38532011 47.7516074,4.1496319 C47.7516074,1.91394369 49.5642277,0.100552147 51.8001902,0.100552147 C54.0371466,0.100552147 55.8497669,1.91394369 55.8497669,4.1496319" id="Fill-18"></path>
                <path d="M72.7169509,29.4171718 C72.7169509,31.65286 70.9043306,33.4662515 68.6673743,33.4662515 C66.4314117,33.4662515 64.6187914,31.65286 64.6187914,29.4171718 C64.6187914,27.1814836 66.4314117,25.368092 68.6673743,25.368092 C70.9043306,25.368092 72.7169509,27.1814836 72.7169509,29.4171718" id="Fill-20"></path>
            </g>
        </g>
    </g>
</svg>