<?xml version="1.0" encoding="UTF-8" standalone="no"?>
<!DOCTYPE svg PUBLIC "-//W3C//DTD SVG 1.1//EN" "http://www.w3.org/Graphics/SVG/1.1/DTD/svg11.dtd">
<!-- Created with Vectornator (http://vectornator.io/) -->
<svg height="100%" stroke-miterlimit="10" style="fill-rule:nonzero;clip-rule:evenodd;stroke-linecap:round;stroke-linejoin:round;" version="1.1" viewBox="0 0 1200 1200" width="33px" xml:space="preserve" xmlns="http://www.w3.org/2000/svg" xmlns:vectornator="http://vectornator.io" xmlns:xlink="http://www.w3.org/1999/xlink">
<defs/>
<g id="Untitled" vectornator:layerName="Untitled">
<g opacity="1" vectornator:layerName="g">
<path d="M923.91 953.44C930.472 953.44 935.629 948.284 935.629 941.721C935.629 935.158 930.473 930.002 923.91 930.002C908.676 930.002 895.316 936.799 886.176 947.346C877.035 936.565 863.442 930.002 848.442 930.002C841.879 930.002 836.723 935.158 836.723 941.721C836.723 948.284 841.879 953.44 848.442 953.44C861.333 953.44 872.348 962.815 874.458 975.237C874.224 976.643 874.224 978.284 874.224 979.925C874.224 981.565 874.224 982.971 874.458 984.612C872.349 997.034 861.567 1006.41 848.442 1006.41C841.879 1006.41 836.723 1011.57 836.723 1018.13C836.723 1024.69 841.879 1029.85 848.442 1029.85C863.676 1029.85 877.036 1023.05 886.176 1012.5C895.317 1023.28 908.91 1029.85 923.91 1029.85C930.472 1029.85 935.629 1024.69 935.629 1018.13C935.629 1011.57 930.473 1006.41 923.91 1006.41C911.019 1006.41 900.004 997.034 897.894 984.612C898.128 983.206 898.128 981.565 898.128 979.925C898.128 978.284 898.128 976.878 897.894 975.237C900.003 962.815 910.785 953.44 923.91 953.44Z" fill="#104ad3" fill-rule="nonzero" opacity="1" stroke="none" vectornator:layerName="path"/>
<path d="M172.27 397.27L154.926 416.254C150.473 420.941 150.942 428.442 155.629 432.895C157.973 435.004 160.785 435.942 163.598 435.942C166.879 435.942 169.926 434.536 172.27 432.192L189.614 413.208L208.598 430.552C210.942 432.661 213.754 433.599 216.567 433.599C219.848 433.599 222.895 432.193 225.239 429.849C229.692 425.161 229.223 417.661 224.535 413.208L205.551 395.864L222.895 376.88C227.348 372.192 226.88 364.692 222.192 360.239C217.505 355.786 210.004 356.254 205.551 360.942L188.207 379.926L169.223 362.582C164.536 358.129 157.035 358.598 152.582 363.285C148.129 367.973 148.598 375.473 153.285 379.926L172.27 397.27Z" fill="#104ad3" fill-rule="nonzero" opacity="1" stroke="none" vectornator:layerName="path"/>
<path d="M998.44 620.86L921.565 370.78C937.034 359.764 947.112 341.483 947.112 321.092C947.112 287.342 919.69 259.92 885.94 259.92C852.19 259.92 824.768 287.342 824.768 321.092C824.768 336.561 830.393 350.389 839.768 361.17L816.096 398.436C753.752 317.342 657.186 269.526 554.296 269.526C481.171 269.526 411.796 292.964 353.906 337.26C348.75 341.244 347.812 348.51 351.797 353.666C355.781 358.822 363.047 359.76 368.203 355.775C413.906 320.853 467.109 299.994 523.823 294.369C490.776 328.353 463.589 367.26 443.198 409.449L304.678 409.449C303.974 408.043 302.803 406.637 301.396 405.699C296.006 401.949 288.74 403.121 284.99 408.512C262.021 440.856 245.146 476.715 235.068 514.922C233.428 521.25 237.178 527.578 243.506 529.219C244.443 529.453 245.615 529.688 246.553 529.688C251.709 529.688 256.397 526.172 257.803 521.016C266.006 489.61 279.131 460.313 296.944 433.125L432.884 433.125C412.728 481.875 401.478 534.375 399.837 588.285L246.557 588.285C244.682 588.285 242.807 588.753 241.166 589.691C239.526 588.753 237.885 588.285 235.776 588.285C229.213 588.285 224.057 593.441 224.057 600.004C224.057 645.004 232.963 688.598 250.307 729.614C252.182 734.067 256.635 736.645 261.088 736.645C262.728 736.645 264.135 736.411 265.775 735.707C271.635 733.129 274.447 726.332 271.869 720.238C257.103 685.785 249.135 649.222 247.728 611.718L399.838 611.718C401.244 665.39 412.729 717.888 432.885 766.878L290.615 766.878L290.146 766.878C289.443 766.878 288.974 766.878 288.271 767.113C287.802 767.113 287.099 767.347 286.631 767.582C286.396 767.582 286.396 767.582 286.162 767.816C284.756 768.519 283.349 769.222 282.412 770.394C282.177 770.628 281.943 770.863 281.709 771.332C281.474 771.566 281.24 772.035 281.006 772.269C280.771 772.503 280.537 772.972 280.537 773.441C280.302 773.675 280.068 774.144 280.068 774.378C279.834 774.847 279.834 775.316 279.599 775.55C279.599 775.785 279.365 776.253 279.365 776.488C279.131 777.894 279.131 779.535 279.365 781.175L279.365 781.41C279.599 782.113 279.599 782.582 280.068 783.285C280.302 783.753 280.537 783.988 280.771 784.457C281.006 784.691 281.006 784.925 281.24 785.394C342.881 876.332 445.07 930.704 554.99 930.704C626.24 930.704 694.21 908.438 751.16 866.016L825.222 866.016C831.784 866.016 836.941 860.86 836.941 854.297C836.941 847.734 831.785 842.578 825.222 842.578L691.862 842.578C685.299 842.578 680.143 847.734 680.143 854.297C680.143 860.86 685.299 866.016 691.862 866.016L708.503 866.016C671.472 887.578 630.456 900.938 587.803 905.391C620.85 871.407 647.803 832.5 668.194 790.551L951.554 790.551C958.116 790.551 963.273 785.395 963.273 778.832C963.273 772.269 958.117 767.113 951.554 767.113L839.284 767.113C856.628 737.347 869.284 705.472 876.55 671.957L934.675 686.723C936.784 718.598 963.503 743.676 995.847 743.676C1029.6 743.676 1057.02 716.254 1057.02 682.504C1057.25 648.988 1031 622.035 998.425 620.863L998.44 620.86ZM975.002 624.61C957.424 630.938 943.83 645.235 937.971 663.048L881.252 648.751C883.596 632.813 884.768 616.407 884.768 600.235C884.768 593.673 879.611 588.516 873.049 588.516C866.486 588.516 861.33 593.672 861.33 600.235C861.33 614.532 860.392 628.829 858.283 643.126L757.973 617.814C759.613 612.189 760.551 606.33 760.551 600.236C760.551 583.595 753.988 568.595 743.207 557.58L817.035 441.33C825.707 455.627 833.207 470.627 839.535 486.096C841.41 490.784 845.863 493.362 850.316 493.362C851.722 493.362 853.128 493.127 854.769 492.424C860.863 490.08 863.675 483.284 861.331 477.19C853.128 457.034 843.05 437.581 831.097 419.299L858.753 375.94C866.956 380.159 876.565 382.503 886.409 382.503C891.331 382.503 896.019 381.799 900.471 380.862L975.002 624.61ZM566.022 306.8C596.491 337.269 621.803 371.956 641.491 409.69L566.022 409.69L566.022 306.8ZM652.506 433.13C667.506 467.349 677.818 503.442 683.209 540.71C660.709 546.804 643.365 565.085 638.912 588.054L565.787 588.054L565.787 432.894L652.506 432.894L652.506 433.13ZM639.147 611.72C643.6 634.689 660.944 653.204 683.444 659.064C678.053 696.33 667.741 732.658 652.741 766.644L566.257 766.644L566.257 611.724L639.147 611.72ZM699.147 637.736C678.288 637.736 661.413 620.861 661.413 600.002C661.413 579.143 678.288 562.268 699.147 562.268C720.006 562.268 736.881 579.143 736.881 600.002C736.881 620.861 720.006 637.736 699.147 637.736ZM885.947 283.126C906.806 283.126 923.681 300.001 923.681 320.86C923.681 341.719 906.806 358.594 885.947 358.594C865.088 358.594 848.213 341.719 848.213 320.86C848.213 300.001 865.088 283.126 885.947 283.126ZM802.744 419.766L723.994 543.986C718.603 541.642 712.978 540.002 706.885 539.298C701.729 502.736 692.119 467.111 678.057 433.358L749.073 433.358C755.636 433.358 760.792 428.202 760.792 421.639C760.792 415.077 755.636 409.921 749.073 409.921L667.745 409.921C647.354 367.733 620.401 329.062 587.354 295.081C672.901 304.221 751.414 349.222 802.744 419.771L802.744 419.766ZM542.584 308.676L542.584 409.696L469.225 409.696C488.209 372.899 513.053 338.68 542.584 308.676ZM457.975 433.126L542.35 433.126L542.35 588.286L422.82 588.286C424.695 534.38 436.648 481.646 457.976 433.126L457.975 433.126ZM423.053 611.716L542.583 611.716L542.583 766.876L458.208 766.876C436.646 718.36 424.692 665.626 423.052 611.716L423.053 611.716ZM542.583 891.326C513.052 861.326 488.442 827.342 469.224 790.306L542.583 790.306L542.583 891.326ZM313.363 790.306L442.973 790.306C463.364 832.494 490.317 871.4 523.598 905.386C440.864 897.183 365.158 855.698 313.368 790.306L313.363 790.306ZM566.023 893.196L566.023 790.306L641.492 790.306C621.804 828.04 596.492 862.728 566.023 893.196ZM811.883 766.866L678.053 766.866C691.881 733.116 701.725 697.491 706.881 660.926C722.819 659.051 736.881 650.848 746.725 638.895L854.065 666.083C846.096 701.942 832.034 735.692 811.877 766.863L811.883 766.866ZM996.103 719.991C975.244 719.991 958.369 703.116 958.369 682.257C958.369 661.398 975.244 644.523 996.103 644.523C1016.96 644.523 1033.84 661.398 1033.84 682.257C1033.84 703.116 1016.96 719.991 996.103 719.991Z" fill="#104ad3" fill-rule="nonzero" opacity="1" stroke="none" vectornator:layerName="path"/>
<path d="M550.08 1010.6C385.78 1010.6 234.61 914.272 165 765.44C162.188 759.581 155.391 757.003 149.531 759.815C143.671 762.628 141.094 769.424 143.906 775.284C179.531 851.456 235.781 915.904 306.326 961.844C378.982 1008.95 463.126 1033.8 550.076 1033.8C556.639 1033.8 561.795 1028.64 561.795 1022.08C561.795 1015.52 556.639 1010.59 550.076 1010.59L550.08 1010.6Z" fill="#104ad3" fill-rule="nonzero" opacity="1" stroke="none" vectornator:layerName="path"/>
<path d="M272.34 288.98C274.918 288.98 277.496 288.043 279.84 286.402C355.543 223.824 451.64 189.371 550.07 189.371C556.632 189.371 561.789 184.215 561.789 177.652C561.789 171.089 556.633 165.933 550.07 165.933C446.24 165.933 344.99 202.261 264.84 268.353C259.918 272.572 259.215 279.837 263.199 284.759C265.777 287.571 269.059 288.978 272.34 288.978L272.34 288.98Z" fill="#104ad3" fill-rule="nonzero" opacity="1" stroke="none" vectornator:layerName="path"/>
<path d="M880.55 530.39C880.55 537.64 874.675 543.515 867.425 543.515C860.175 543.515 854.3 537.64 854.3 530.39C854.3 523.14 860.175 517.265 867.425 517.265C874.675 517.265 880.55 523.14 880.55 530.39" fill="#104ad3" fill-rule="evenodd" opacity="1" stroke="none" vectornator:layerName="path"/>
</g>
</g>
</svg>
